<?xml version="1.0" encoding="UTF-8"?>
<svg width="800px" height="800px" fill="#000000" version="1.1" viewBox="0 0 197.72 197.72" xml:space="preserve" xmlns="http://www.w3.org/2000/svg">
<path d="m136.14 94.01c-0.064-0.127-6.051-11.94-9.446-18.893-0.662-28.985-4.961-44.893-7.461-51.795 0.94-2.383 1.402-5.337 0.856-8.73-0.126-0.788-0.211-1.533-0.292-2.225-0.351-3.006-1.417-12.153-11.133-12.366-0.055 0-0.109-1e-3 -0.164-1e-3h-19.279c-0.055 0-0.109 1e-3 -0.164 2e-3 -9.716 0.212-10.782 9.36-11.133 12.366-0.081 0.691-0.166 1.437-0.293 2.226-0.545 3.392-0.083 6.347 0.858 8.729-2.501 6.904-6.8 22.812-7.46 51.794-3.396 6.952-9.382 18.766-9.446 18.893-0.533 1.051-0.811 2.212-0.811 3.391v92.821c0 4.142 3.357 7.5 7.5 7.5h61.178c4.143 0 7.5-3.358 7.5-7.5v-92.821c0-1.178-0.277-2.339-0.81-3.391zm-50.892-13.834c0.472-0.977 0.726-2.044 0.745-3.129 0.64-36.239 7.357-50.546 7.549-50.944 0.022-0.043 0.038-0.087 0.059-0.131 0.073-0.151 0.143-0.303 0.205-0.457 0.03-0.076 0.06-0.151 0.088-0.228 0.053-0.145 0.102-0.291 0.146-0.438 0.026-0.088 0.052-0.175 0.075-0.264 0.034-0.133 0.063-0.268 0.091-0.402 0.02-0.1 0.041-0.199 0.058-0.299 0.02-0.124 0.032-0.249 0.046-0.373 0.012-0.108 0.025-0.216 0.033-0.325 8e-3 -0.121 7e-3 -0.242 9e-3 -0.363 2e-3 -0.109 8e-3 -0.218 5e-3 -0.327-6e-3 -0.223-0.021-0.445-0.048-0.666-8e-3 -0.066-0.022-0.131-0.031-0.197-0.024-0.164-0.049-0.328-0.083-0.491-0.016-0.071-0.036-0.141-0.054-0.212-0.037-0.155-0.076-0.31-0.124-0.462-0.021-0.071-0.049-0.141-0.073-0.212-0.051-0.148-0.104-0.296-0.165-0.442-0.03-0.073-0.064-0.144-0.098-0.216-0.063-0.138-0.127-0.274-0.198-0.409-0.041-0.078-0.085-0.153-0.128-0.229-0.07-0.122-0.143-0.242-0.221-0.361-0.056-0.085-0.113-0.168-0.173-0.251-0.072-0.102-0.146-0.202-0.225-0.3-0.073-0.093-0.149-0.184-0.227-0.273-0.035-0.04-0.065-0.082-0.101-0.121-4e-3 -0.067-0.01-0.149-0.013-0.168 3e-3 -0.044 9e-3 -0.168 0.01-0.21 9e-3 -0.053 0.041-0.315 0.038-0.315 0 0-1e-3 4e-3 -3e-3 0.015 0.11-0.685 0.198-1.345 0.276-1.976h12.287c0.078 0.631 0.166 1.291 0.275 1.975 0.047 0.292 0.05 0.487 0.043 0.62-1.961 2.125-2.569 5.25-1.367 8.015 0.043 0.104 0.092 0.207 0.141 0.309 0.029 0.058 0.051 0.118 0.081 0.176 0.068 0.139 6.905 14.374 7.553 50.953 0.02 1.084 0.273 2.151 0.745 3.128 2.622 5.432 7.534 15.175 9.476 19.015v83.532h-46.178v-83.532c1.942-3.84 6.853-13.583 9.476-19.015z"/>
<path d="m109.16 174.3h-14.682v-60.657l-9.4844 3.5901v-15.593l11.628-5.2512h12.539z" stroke-width=".24715" aria-label="1"/></svg>
